Coordinates
version=1
nRows=32
nColumns=22
inDegrees=yes

Units are S.I. units (second, meters, Newtons, ...)
If the header above contains a line with 'inDegrees', this indicates whether rotational values are in degrees (yes) or radians (no).

endheader
time	pelvis_tilt	pelvis_list	pelvis_rotation	pelvis_tx	pelvis_ty	pelvis_tz	hip_flexion_r	hip_adduction_r	hip_rotation_r	knee_angle_r	ankle_angle_r	subtalar_angle_r	hip_flexion_l	hip_adduction_l	hip_rotation_l	knee_angle_l	ankle_angle_l	subtalar_angle_l	lumbar_extension	lumbar_bending	lumbar_rotation
      3.27000000	      0.90010685	      0.05387022	     -3.15760419	      0.15077530	      0.89947707	     -0.47294455	     23.42181622	      5.26369243	    -28.30237618	     -6.13795003	      2.74968723	     -1.40200377	    -10.75501144	     -3.31239105	    -32.26693231	    -17.82962615	     15.68407281	      5.41701741	     -9.21378543	     -3.02032887	    -15.38610950
      3.28000000	      0.99013397	      0.10693769	     -3.22307825	      0.15905429	      0.89822542	     -0.47273549	     23.46398093	      5.00485315	    -29.00611446	     -6.23420853	      3.08770407	     -1.44750833	    -11.40067966	     -3.25008649	    -32.06269004	    -17.90632955	     15.59402621	      5.73302252	     -9.23469316	     -2.97192311	    -15.71890576
      3.29000000	      1.09465680	      0.17642441	     -3.29092309	      0.16753394	      0.89704585	     -0.47249847	     23.55372600	      4.63354583	    -29.52606053	     -6.85381356	      3.50620741	     -1.60718134	    -12.04350537	     -3.18412569	    -31.82358946	    -18.04295150	     15.41778019	      5.93014621	     -9.26282747	     -2.92131985	    -16.02078758
      3.30000000	      1.23808246	      0.24046508	     -3.34429121	      0.17627089	      0.89601459	     -0.47221968	     23.61608230	      4.19549227	    -29.87306166	     -7.86502573	      3.87036559	     -1.92656754	    -12.73256252	     -3.12546050	    -31.50389653	    -18.18507136	     15.16327260	      6.14018839	     -9.31830604	     -2.84385482	    -16.37811350
      3.31000000	      1.40251169	      0.28629028	     -3.40898067	      0.18526302	      0.89510108	     -0.47176769	     23.63787089	      3.75727383	    -30.04074455	     -9.13898069	      4.15438457	     -2.58254783	    -13.43633307	     -3.10261479	    -31.15309827	    -18.37696548	     14.82337655	      6.40679708	     -9.37817469	     -2.74356770	    -16.72619146
      3.32000000	      1.56681613	      0.30756337	     -3.48616713	      0.19454969	      0.89429622	     -0.47111949	     23.61664686	      3.34936610	    -30.09213707	    -10.57276955	      4.40914441	     -3.11318675	    -14.13040099	     -3.12390191	    -30.78783412	    -18.62533764	     14.41302228	      6.55484818	     -9.40821647	     -2.61340966	    -17.09599963
      3.33000000	      1.72019646	      0.26489090	     -3.59643713	      0.20413377	      0.89360552	     -0.47016925	     23.53050576	      3.05788250	    -30.08493159	    -12.02529667	      4.59271479	     -3.74690596	    -14.79799541	     -3.23785288	    -30.43524681	    -18.96008302	     13.91596697	      6.68503914	     -9.39338337	     -2.42150963	    -17.42864195
      3.34000000	      1.86177638	      0.16736115	     -3.72724809	      0.21397627	      0.89306305	     -0.46889628	     23.36479759	      2.88832107	    -30.08525745	    -13.39348658	      4.70357736	     -4.33297867	    -15.42151792	     -3.43999734	    -30.05567437	    -19.39726602	     13.30981997	      6.77323335	     -9.33411777	     -2.18649720	    -17.74477350
      3.35000000	      1.97618487	     -0.03140858	     -3.92578642	      0.22407384	      0.89265936	     -0.46718563	     23.12485946	      2.92451998	    -30.12743622	    -14.59102475	      4.63696524	     -5.27474958	    -15.98531381	     -3.78871054	    -29.79211577	    -19.97457341	     12.64112606	      6.90413026	     -9.20902841	     -1.86476207	    -18.00785026
      3.36000000	      2.06694765	     -0.29827159	     -4.15004305	      0.23434451	      0.89245802	     -0.46510207	     22.80666708	      3.11688096	    -30.24776875	    -15.56991668	      4.42662430	     -6.21884132	    -16.46119398	     -4.24833662	    -29.46926486	    -20.70575992	     11.81352420	      7.01557688	     -9.03324486	     -1.49512396	    -18.23621226
      3.37000000	      2.12867542	     -0.61722399	     -4.46855681	      0.24473879	      0.89241296	     -0.46256526	     22.45268177	      3.46212975	    -30.37854883	    -16.37720011	      4.09531339	     -7.37944784	    -16.84066469	     -4.80292237	    -29.24781807	    -21.62206929	     10.86602511	      7.18560770	     -8.80279721	     -1.10161338	    -18.38852465
      3.38000000	      2.15650608	     -0.96583581	     -4.85794241	      0.25517830	      0.89256269	     -0.45963177	     22.06427135	      3.93085950	    -30.46982192	    -16.99272496	      3.61952457	     -8.61391888	    -17.09629779	     -5.42162380	    -28.97262622	    -22.72194267	      9.71433154	      7.39858133	     -8.52376654	     -0.70814699	    -18.45660281
      3.39000000	      2.15064274	     -1.30714765	     -5.34097524	      0.26557363	      0.89289274	     -0.45631671	     21.66798321	      4.47889362	    -30.41795105	    -17.47665031	      3.02954282	     -9.82287015	    -17.21017966	     -6.06239717	    -28.65568095	    -24.01811046	      8.34706499	      7.66990547	     -8.20713739	     -0.35569102	    -18.43415399
      3.40000000	      2.11910068	     -1.60796932	     -5.92486058	      0.27585380	      0.89339757	     -0.45266886	     21.27607129	      5.05640934	    -30.16555696	    -17.88900071	      2.41757245	    -10.93051761	    -17.17607122	     -6.68182143	    -28.26131569	    -25.50501836	      6.73185655	      8.01944229	     -7.87060632	     -0.07625574	    -18.31365972
      3.41000000	      2.07403063	     -1.84745268	     -6.60696404	      0.28594600	      0.89407713	     -0.44875925	     20.89044008	      5.62201009	    -29.69388523	    -18.27612483	      1.85194288	    -11.86145671	    -16.98776708	     -7.24928603	    -27.74859258	    -27.17909435	      4.86811656	      8.44673355	     -7.53717294	      0.11353956	    -18.09970045
      3.42000000	      2.02603223	     -2.01836492	     -7.37386124	      0.29580057	      0.89491381	     -0.44465461	     20.50763784	      6.14997838	    -29.02898472	    -18.66327649	      1.38526900	    -12.62675458	    -16.64284106	     -7.74953844	    -27.07871952	    -29.02850104	      2.76421356	      8.96299617	     -7.22399694	      0.21072679	    -17.80361282
      3.43000000	      1.99015526	     -2.11979421	     -8.20463987	      0.30536604	      0.89589730	     -0.44045012	     20.11964598	      6.61511966	    -28.22815588	    -19.06925173	      1.03819571	    -13.21307755	    -16.13846658	     -8.17245899	    -26.22133544	    -31.05036225	      0.44905739	      9.53156006	     -6.95553430	      0.22330332	    -17.44725797
      3.44000000	      1.96847082	     -2.15268897	     -9.10541957	      0.31456761	      0.89698376	     -0.43618799	     19.73025824	      7.02201731	    -27.24127107	    -19.48862063	      0.77222509	    -13.60220337	    -15.46675829	     -8.50700990	    -25.20277478	    -33.24360092	     -1.99103139	     10.07335407	     -6.74104022	      0.15850249	    -17.05130230
      3.45000000	      1.96561302	     -2.12381558	    -10.02502992	      0.32342051	      0.89813073	     -0.43196198	     19.33293740	      7.35048618	    -26.20496018	    -19.91882303	      0.65703966	    -13.86722586	    -14.62006453	     -8.75427806	    -23.97563602	    -35.59723711	     -4.52449439	     10.61596227	     -6.58377755	      0.02520426	    -16.63261210
      3.46000000	      1.98533665	     -2.05290819	    -10.94875959	      0.33191402	      0.89930072	     -0.42782673	     18.92331940	      7.61529018	    -25.13696310	    -20.35214400	      0.67066234	    -14.00160380	    -13.60581189	     -8.92588278	    -22.58475663	    -38.10347743	     -7.05946999	     11.08623159	     -6.49122554	     -0.14890155	    -16.21363168
      3.47000000	      2.02400611	     -1.94879302	    -11.85996099	      0.34004240	      0.90043866	     -0.42382261	     18.50765793	      7.81997533	    -24.07471874	    -20.78469642	      0.80638439	    -14.03039939	    -12.42558417	     -9.02807228	    -21.07948038	    -40.75079737	     -9.50995034	     11.47546317	     -6.46036921	     -0.35151930	    -15.81657230
      3.48000000	      2.08534582	     -1.82752829	    -12.74374347	      0.34783030	      0.90153163	     -0.41997041	     18.06544749	      7.97945285	    -23.05966294	    -21.18217476	      1.03533138	    -13.97953212	    -11.10302057	     -9.07502749	    -19.51727793	    -43.50713555	    -11.79899114	     11.72734668	     -6.49434091	     -0.56701627	    -15.45076304
      3.49000000	      2.16534028	     -1.70501378	    -13.58844442	      0.35530445	      0.90256053	     -0.41627025	     17.58402804	      8.11048387	    -22.13144808	    -21.51448202	      1.34430758	    -13.88540685	     -9.65898231	     -9.08569835	    -17.94828176	    -46.32903074	    -13.85788353	     11.81508682	     -6.58557563	     -0.77983775	    -15.11527524
      3.50000000	      2.25707450	     -1.59056493	    -14.39411009	      0.36247631	      0.90350996	     -0.41271500	     17.06037730	      8.22608097	    -21.29703075	    -21.76536863	      1.72275665	    -13.78202170	     -8.11383038	     -9.07599691	    -16.42593038	    -49.16733328	    -15.61854347	     11.71932237	     -6.72508211	     -0.97879479	    -14.83458942
      3.51000000	      2.35027868	     -1.48765456	    -15.16447791	      0.36938360	      0.90439666	     -0.40928663	     16.48084113	      8.33801085	    -20.56810558	    -21.89036206	      2.13428327	    -13.69906211	     -6.49068130	     -9.04290607	    -14.95771974	    -51.94930639	    -17.02958463	     11.42140707	     -6.89112822	     -1.16191825	    -14.57409039
      3.52000000	      2.43585872	     -1.39703276	    -15.91096901	      0.37604252	      0.90522163	     -0.40596027	     15.85051229	      8.45441533	    -19.92065376	    -21.88281837	      2.56684325	    -13.64780887	     -4.81034291	     -8.99561967	    -13.57568817	    -54.62241273	    -18.04087155	     10.94933025	     -7.06972767	     -1.32561994	    -14.34667823
      3.53000000	      2.50548042	     -1.32003007	    -16.65154955	      0.38247201	      0.90600371	     -0.40270482	     15.17983664	      8.58151394	    -19.33875384	    -21.75123629	      2.98996388	    -13.62593026	     -3.09437673	     -8.93820658	    -12.29325648	    -57.13385824	    -18.61965280	     10.35933318	     -7.24436025	     -1.47053746	    -14.12387451
      3.54000000	      2.56235097	     -1.25576961	    -17.40552379	      0.38871962	      0.90677875	     -0.39947233	     14.46315262	      8.72424490	    -18.78068781	    -21.49592406	      3.38443416	    -13.61649904	     -1.37910466	     -8.87466764	    -11.12397592	    -59.43747504	    -18.76817011	      9.76171169	     -7.40935494	     -1.59854240	    -13.88771264
      3.55000000	      2.60681709	     -1.20913911	    -18.19742136	      0.39482015	      0.90756038	     -0.39618977	     13.71266845	      8.88985320	    -18.21649135	    -21.15318162	      3.75360284	    -13.59483983	      0.30495012	     -8.82227302	    -10.08510876	    -61.50232390	    -18.51579803	      9.28081393	     -7.55824197	     -1.71110248	    -13.60516962
      3.56000000	      2.63100554	     -1.14584684	    -19.04581381	      0.40079378	      0.90836323	     -0.39281070	     12.96431548	      9.04651451	    -17.60203178	    -20.75845471	      4.02571366	    -13.55224052	      1.96012531	     -8.75432957	     -9.17853892	    -63.29918721	    -17.96818355	      8.90947771	     -7.66068913	     -1.84837322	    -13.26900561
      3.57000000	      2.63804984	     -1.08692481	    -19.96315878	      0.40667336	      0.90917423	     -0.38927075	     12.22482141	      9.21600360	    -16.90495703	    -20.35389558	      4.26931298	    -13.47030415	      3.56097159	     -8.71588263	     -8.41996777	    -64.82764789	    -17.19414012	      8.70625205	     -7.72229742	     -1.98842832	    -12.87534646
      3.58000000	      2.68911792	     -1.03978739	    -20.95724049	      0.41248338	      0.91007490	     -0.38555356	     11.44615931	      9.37590396	    -16.12337913	    -19.98394846	      4.51674088	    -13.36764408	      5.02046835	     -8.69371155	     -7.80280371	    -66.06494204	    -16.20162869	      8.68054852	     -7.81057992	     -2.14648242	    -12.42742926
